<svg xmlns="http://www.w3.org/2000/svg" version="1.1" xmlns:xlink="http://www.w3.org/1999/xlink" xmlns:svgjs="http://svgjs.dev/svgjs" width="1500" height="1500" viewBox="0 0 1500 1500"><rect width="1500" height="1500" fill="#ffffff"></rect><g transform="matrix(0.6666666666666666,0,0,0.6666666666666666,249.39393939393938,435.99032258064517)"><svg viewBox="0 0 396 248" data-background-color="#ffffff" preserveAspectRatio="xMidYMid meet" height="939" width="1500" xmlns="http://www.w3.org/2000/svg" xmlns:xlink="http://www.w3.org/1999/xlink"><g id="tight-bounds" transform="matrix(1,0,0,1,0.2400000000000091,0.4000000000000057)"><svg viewBox="0 0 395.52 247.2" height="247.2" width="395.52"><g><svg></svg></g><g><svg viewBox="0 0 395.52 247.2" height="247.2" width="395.52"><g transform="matrix(1,0,0,1,75.54432,111.19888727024257)"><svg viewBox="0 0 244.43135999999998 24.802225459514858" height="24.802225459514858" width="244.43135999999998"><g><svg viewBox="0 0 244.43135999999998 24.802225459514858" height="24.802225459514858" width="244.43135999999998"><g><svg viewBox="0 0 244.43136 24.80222545951486" height="24.802225459514858" width="244.43135999999998"><g><svg viewBox="0 0 244.43136 24.80222545951486" height="24.80222545951486" width="244.43136"><g id="textblocktransform"><svg viewBox="0 0 244.43136 24.80222545951486" height="24.80222545951486" width="244.43136" id="textblock"><g><svg viewBox="0 0 244.43136 24.80222545951486" height="24.80222545951486" width="244.43136"><g transform="matrix(1,0,0,1,0,0)"><svg width="244.43136" viewBox="1.2 -35.5 357.27000000000004 36.26" height="24.80222545951486" data-palette-color="#2a2c35"><path d="M1.2-24.51L1.2-24.51Q1.2-26.68 2.03-28.59 2.86-30.49 4.28-31.92 5.71-33.35 7.62-34.18 9.52-35.01 11.69-35.01L11.69-35.01 27.76-35.01 27.76-28 11.69-28Q10.96-28 10.33-27.73 9.69-27.47 9.22-26.99 8.74-26.51 8.47-25.88 8.2-25.24 8.2-24.51L8.2-24.51Q8.2-23.78 8.47-23.13 8.74-22.49 9.22-22.01 9.69-21.53 10.33-21.26 10.96-21 11.69-21L11.69-21 18.7-21Q20.87-21 22.79-20.18 24.71-19.36 26.14-17.93 27.56-16.5 28.38-14.59 29.2-12.67 29.2-10.5L29.2-10.5Q29.2-8.33 28.38-6.42 27.56-4.52 26.14-3.09 24.71-1.66 22.79-0.83 20.87 0 18.7 0L18.7 0 3.15 0 3.15-7.01 18.7-7.01Q19.43-7.01 20.07-7.28 20.7-7.54 21.18-8.02 21.66-8.5 21.92-9.13 22.19-9.77 22.19-10.5L22.19-10.5Q22.19-11.23 21.92-11.87 21.66-12.5 21.18-12.98 20.7-13.45 20.07-13.72 19.43-13.99 18.7-13.99L18.7-13.99 11.69-13.99Q9.52-13.99 7.62-14.82 5.71-15.65 4.28-17.08 2.86-18.51 2.03-20.42 1.2-22.34 1.2-24.51ZM40.79-35.01L40.79 0 33.79 0 33.79-35.01 40.79-35.01ZM71.8-7.01L71.8 0 47.29 0 47.29-35.01 54.29-35.01 54.29-7.01 71.8-7.01ZM90.69-35.01L98.7-35.01 87.2 0 80.19 0 68.74-35.01 76.7-35.01 83.68-11.65 90.69-35.01ZM126.04-7.01L126.04 0 102.04 0 102.04-35.01 126.04-35.01 126.04-28 109.05-28 109.05-21 120.55-21 120.55-13.99 109.05-13.99 109.05-7.01 126.04-7.01ZM144.96-28L137.95-28 137.95-13.99 144.96-13.99Q146.4-13.99 147.67-14.54 148.94-15.09 149.89-16.04 150.84-16.99 151.39-18.27 151.94-19.56 151.94-21L151.94-21Q151.94-22.44 151.39-23.72 150.84-25 149.89-25.95 148.94-26.9 147.67-27.45 146.4-28 144.96-28L144.96-28ZM137.95-7.01L137.95 0 130.94 0 130.94-35.01 144.96-35.01Q146.89-35.01 148.67-34.51 150.45-34.01 152-33.09 153.55-32.18 154.83-30.9 156.12-29.61 157.03-28.05 157.95-26.49 158.45-24.71 158.95-22.92 158.95-21L158.95-21Q158.95-19.19 158.5-17.48 158.04-15.77 157.2-14.23 156.36-12.7 155.14-11.4 153.92-10.11 152.4-9.16L152.4-9.16 156.29 0 148.84 0 145.79-7.06 137.95-7.01ZM175.47-24.51L175.47-24.51Q175.47-26.68 176.3-28.59 177.13-30.49 178.56-31.92 179.99-33.35 181.89-34.18 183.8-35.01 185.97-35.01L185.97-35.01 202.03-35.01 202.03-28 185.97-28Q185.24-28 184.6-27.73 183.97-27.47 183.49-26.99 183.01-26.51 182.75-25.88 182.48-25.24 182.48-24.51L182.48-24.51Q182.48-23.78 182.75-23.13 183.01-22.49 183.49-22.01 183.97-21.53 184.6-21.26 185.24-21 185.97-21L185.97-21 192.98-21Q195.15-21 197.07-20.18 198.98-19.36 200.41-17.93 201.84-16.5 202.66-14.59 203.47-12.67 203.47-10.5L203.47-10.5Q203.47-8.33 202.66-6.42 201.84-4.52 200.41-3.09 198.98-1.66 197.07-0.83 195.15 0 192.98 0L192.98 0 177.42 0 177.42-7.01 192.98-7.01Q193.71-7.01 194.34-7.28 194.98-7.54 195.45-8.02 195.93-8.5 196.2-9.13 196.47-9.77 196.47-10.5L196.47-10.5Q196.47-11.23 196.2-11.87 195.93-12.5 195.45-12.98 194.98-13.45 194.34-13.72 193.71-13.99 192.98-13.99L192.98-13.99 185.97-13.99Q183.8-13.99 181.89-14.82 179.99-15.65 178.56-17.08 177.13-18.51 176.3-20.42 175.47-22.34 175.47-24.51ZM232.3-9.69L236.02-3.59Q233.57-1.49 230.55-0.37 227.52 0.76 224.27 0.76L224.27 0.76Q221.78 0.76 219.47 0.11 217.17-0.54 215.15-1.72 213.14-2.91 211.48-4.57 209.82-6.23 208.63-8.24 207.45-10.25 206.8-12.56 206.16-14.87 206.16-17.36L206.16-17.36Q206.16-19.85 206.8-22.17 207.45-24.49 208.63-26.5 209.82-28.52 211.48-30.18 213.14-31.84 215.15-33.02 217.17-34.2 219.47-34.85 221.78-35.5 224.27-35.5L224.27-35.5Q227.52-35.5 230.55-34.39 233.57-33.28 236.02-31.15L236.02-31.15 232.3-25.05Q230.77-26.71 228.67-27.6 226.57-28.49 224.27-28.49L224.27-28.49Q221.95-28.49 219.93-27.61 217.9-26.73 216.39-25.23 214.87-23.73 213.99-21.69 213.11-19.65 213.11-17.36L213.11-17.36Q213.11-15.06 213.99-13.05 214.87-11.04 216.39-9.52 217.9-8.01 219.93-7.13 221.95-6.25 224.27-6.25L224.27-6.25Q226.57-6.25 228.67-7.14 230.77-8.03 232.3-9.69L232.3-9.69ZM254.08-28L247.07-28 247.07-13.99 254.08-13.99Q255.52-13.99 256.79-14.54 258.06-15.09 259.01-16.04 259.96-16.99 260.51-18.27 261.06-19.56 261.06-21L261.06-21Q261.06-22.44 260.51-23.72 259.96-25 259.01-25.95 258.06-26.9 256.79-27.45 255.52-28 254.08-28L254.08-28ZM247.07-7.01L247.07 0 240.07 0 240.07-35.01 254.08-35.01Q256.01-35.01 257.79-34.51 259.57-34.01 261.12-33.09 262.67-32.18 263.95-30.9 265.24-29.61 266.15-28.05 267.07-26.49 267.57-24.71 268.07-22.92 268.07-21L268.07-21Q268.07-19.19 267.62-17.48 267.17-15.77 266.32-14.23 265.48-12.7 264.26-11.4 263.04-10.11 261.53-9.16L261.53-9.16 265.41 0 257.96 0 254.91-7.06 247.07-7.01ZM296.65-7.01L296.65 0 272.66 0 272.66-35.01 296.65-35.01 296.65-28 279.66-28 279.66-21 291.16-21 291.16-13.99 279.66-13.99 279.66-7.01 296.65-7.01ZM325.56-7.01L325.56 0 301.56 0 301.56-35.01 325.56-35.01 325.56-28 308.57-28 308.57-21 320.07-21 320.07-13.99 308.57-13.99 308.57-7.01 325.56-7.01ZM358.47-35.01L358.47 0 350.97 0 337.47-23.05 337.47 0 330.46 0 330.46-35.01 337.96-35.01 351.46-11.94 351.46-35.01 358.47-35.01Z" opacity="1" transform="matrix(1,0,0,1,0,0)" fill="#2a2c35" class="wordmark-text-0" data-fill-palette-color="primary" id="text-0"></path></svg></g></svg></g></svg></g></svg></g></svg></g></svg></g></svg></g><g><path d="M0 123.6c0-68.262 55.338-123.6 123.6-123.6 63.072 0 115.11 47.242 122.659 108.271l-1.127 0c-7.542-60.41-59.078-107.153-121.532-107.153-67.645 0-122.482 54.837-122.482 122.482 0 67.645 54.837 122.482 122.482 122.482 62.453 0 113.989-46.743 121.532-107.153l1.127 0c-7.549 61.029-59.587 108.271-122.659 108.271-68.262 0-123.6-55.338-123.6-123.6z" fill="#2a2c35" stroke="transparent" data-fill-palette-color="tertiary"></path></g></svg></g><defs></defs></svg><rect width="395.52" height="247.2" fill="none" stroke="none" visibility="hidden"></rect></g></svg></g></svg>